<svg width="65" height="39" viewBox="0 0 65 39" fill="none" xmlns="http://www.w3.org/2000/svg">
<path opacity="0.5" d="M31.4875 19.2644C31.4875 25.0244 30.0581 29.6537 27.1995 33.1524C24.3408 36.6084 20.4795 38.3364 15.6155 38.3364C10.7941 38.3364 6.97545 36.6084 4.15945 33.1524C1.38612 29.6964 -0.000546694 24.811 -0.000546694 18.4964C-0.000546694 13.291 1.38612 8.91769 4.15945 5.37636C6.97545 1.79236 10.8581 0.000358582 15.8075 0.000358582C20.7995 0.000358582 24.6608 1.77103 27.3915 5.31236C30.1221 8.81102 31.4875 13.4617 31.4875 19.2644ZM21.9515 18.4964C21.9515 7.01902 19.8821 1.28036 15.7435 1.28036C11.6048 1.28036 9.53545 7.01902 9.53545 18.4964C9.53545 24.6404 9.98345 29.2697 10.8795 32.3844C11.7755 35.499 13.4181 37.0564 15.8075 37.0564C18.1968 37.0564 19.8181 35.5204 20.6715 32.4484C21.5248 29.3764 21.9515 24.7257 21.9515 18.4964ZM64.6565 28.4804C64.6565 31.1684 64.0165 33.4724 62.7365 35.3924C61.4991 37.2697 59.6645 38.2084 57.2325 38.2084C54.8431 38.2084 52.0485 37.419 48.8485 35.8404C45.6485 34.219 43.3445 33.4084 41.9365 33.4084C39.4191 33.4084 37.8618 34.795 37.2645 37.5684H35.9845C36.2405 34.3257 37.4351 31.275 39.5685 28.4164C41.0191 26.4964 44.0911 23.2324 48.7845 18.6244C50.0218 17.387 51.1311 15.915 52.1125 14.2084C53.0938 12.5017 53.5845 10.667 53.5845 8.70436C53.5845 6.74169 53.0085 5.05636 51.8565 3.64836C50.7045 2.24036 48.9978 1.53636 46.7365 1.53636C45.2858 1.53636 43.9631 1.81369 42.7685 2.36836C41.5738 2.92303 40.9765 3.56303 40.9765 4.28836C40.9765 4.97102 41.2538 5.48303 41.8085 5.82436C42.4058 6.16569 43.0245 6.44302 43.6645 6.65636C44.3471 6.82702 44.9658 7.25369 45.5205 7.93636C46.1178 8.61902 46.4165 9.53636 46.4165 10.6884C46.4165 11.8404 45.9898 12.8217 45.1365 13.6324C44.3258 14.443 43.1951 14.8484 41.7445 14.8484C40.2938 14.8484 39.0991 14.315 38.1605 13.2484C37.2218 12.1817 36.7525 10.8164 36.7525 9.15236C36.7525 6.54969 37.8618 4.37369 40.0805 2.62436C42.3418 0.875025 45.4778 0.000358582 49.4885 0.000358582C53.5418 0.000358582 56.9765 0.875025 59.7925 2.62436C62.6085 4.37369 64.0165 6.78436 64.0165 9.85636C64.0165 12.3737 63.4191 14.507 62.2245 16.2564C61.0725 18.0057 59.5791 19.3284 57.7445 20.2244C55.9525 21.1204 54.0965 21.9097 52.1765 22.5924C50.2991 23.2324 48.4431 24.0004 46.6085 24.8964C44.8165 25.7497 43.5365 26.7524 42.7685 27.9044C43.7925 27.051 45.1151 26.6244 46.7365 26.6244C48.3578 26.6244 50.1925 26.9017 52.2405 27.4564C54.3311 28.011 55.9738 28.2884 57.1685 28.2884C58.3631 28.2884 59.3445 28.2244 60.1125 28.0964C60.8805 27.9684 61.6058 27.6057 62.2885 27.0084C62.9711 26.411 63.3765 25.5577 63.5045 24.4484H64.1445C64.4858 25.8137 64.6565 27.1577 64.6565 28.4804Z" fill="#B2AEC9"/>
</svg>
