<svg width="66" height="39" viewBox="0 0 66 39" fill="none" xmlns="http://www.w3.org/2000/svg">
<path opacity="0.5" d="M31.4875 19.2644C31.4875 25.0244 30.0581 29.6537 27.1995 33.1524C24.3408 36.6084 20.4795 38.3364 15.6155 38.3364C10.7941 38.3364 6.97545 36.6084 4.15945 33.1524C1.38612 29.6964 -0.000546694 24.811 -0.000546694 18.4964C-0.000546694 13.291 1.38612 8.91769 4.15945 5.37636C6.97545 1.79236 10.8581 0.000358582 15.8075 0.000358582C20.7995 0.000358582 24.6608 1.77103 27.3915 5.31236C30.1221 8.81102 31.4875 13.4617 31.4875 19.2644ZM21.9515 18.4964C21.9515 7.01902 19.8821 1.28036 15.7435 1.28036C11.6048 1.28036 9.53545 7.01902 9.53545 18.4964C9.53545 24.6404 9.98345 29.2697 10.8795 32.3844C11.7755 35.499 13.4181 37.0564 15.8075 37.0564C18.1968 37.0564 19.8181 35.5204 20.6715 32.4484C21.5248 29.3764 21.9515 24.7257 21.9515 18.4964ZM48.2725 0.000358582C58.0005 0.000358582 62.8645 2.94436 62.8645 8.83236C62.8645 11.179 61.9258 13.163 60.0485 14.7844C58.2138 16.4057 55.5685 17.3017 52.1125 17.4724C55.9951 17.515 59.1311 18.3897 61.5205 20.0964C63.9525 21.803 65.1685 24.1284 65.1685 27.0724C65.1685 30.699 63.6965 33.5364 60.7525 35.5844C57.8511 37.5897 53.7338 38.5924 48.4005 38.5924C44.6885 38.5924 41.7871 37.7817 39.6965 36.1604C37.6485 34.4964 36.6245 32.299 36.6245 29.5684C36.6245 27.8617 37.0725 26.475 37.9685 25.4084C38.9071 24.3417 40.1231 23.8084 41.6165 23.8084C43.1098 23.8084 44.2618 24.2137 45.0725 25.0244C45.9258 25.835 46.3525 26.8377 46.3525 28.0324C46.3525 29.1844 46.0325 30.1017 45.3925 30.7844C44.7525 31.467 44.0485 31.8937 43.2805 32.0644C41.2751 32.5337 40.2725 33.2164 40.2725 34.1124C40.2725 34.9657 40.8698 35.6697 42.0645 36.2244C43.3018 36.779 44.7098 37.0564 46.2885 37.0564C48.7631 37.0564 50.7685 36.1604 52.3045 34.3684C53.8405 32.5764 54.6085 30.1657 54.6085 27.1364C54.6085 24.0644 53.9258 21.803 52.5605 20.3524C51.2378 18.9017 48.8058 18.1764 45.2645 18.1764H44.2405V16.8964H45.2645C47.9951 16.8964 49.9578 16.0857 51.1525 14.4644C52.3471 12.8004 52.9445 10.923 52.9445 8.83236C52.9445 6.74169 52.3471 4.99236 51.1525 3.58436C49.9578 2.17636 48.4431 1.47236 46.6085 1.47236C44.7738 1.47236 43.3871 1.77103 42.4485 2.36836C41.5098 2.96569 41.0405 3.60569 41.0405 4.28836C41.0405 4.92836 41.2965 5.39769 41.8085 5.69636C42.3631 5.99502 42.9605 6.22969 43.6005 6.40036C44.2831 6.52836 44.8805 6.89102 45.3925 7.48836C45.9471 8.08569 46.2245 8.89636 46.2245 9.92036C46.2245 10.9444 45.8618 11.819 45.1365 12.5444C44.4111 13.2697 43.3871 13.6324 42.0645 13.6324C40.7418 13.6324 39.6538 13.163 38.8005 12.2244C37.9471 11.2857 37.5205 10.0057 37.5205 8.38436C37.5205 6.03769 38.4805 4.05369 40.4005 2.43236C42.3631 0.811025 44.9871 0.000358582 48.2725 0.000358582Z" fill="#B2AEC9"/>
</svg>
