<svg width="66" height="39" viewBox="0 0 66 39" fill="none" xmlns="http://www.w3.org/2000/svg">
<path opacity="0.5" d="M31.4875 19.2644C31.4875 25.0244 30.0581 29.6537 27.1995 33.1524C24.3408 36.6084 20.4795 38.3364 15.6155 38.3364C10.7941 38.3364 6.97545 36.6084 4.15945 33.1524C1.38612 29.6964 -0.000546694 24.811 -0.000546694 18.4964C-0.000546694 13.291 1.38612 8.91769 4.15945 5.37636C6.97545 1.79236 10.8581 0.000358582 15.8075 0.000358582C20.7995 0.000358582 24.6608 1.77103 27.3915 5.31236C30.1221 8.81102 31.4875 13.4617 31.4875 19.2644ZM21.9515 18.4964C21.9515 7.01902 19.8821 1.28036 15.7435 1.28036C11.6048 1.28036 9.53545 7.01902 9.53545 18.4964C9.53545 24.6404 9.98345 29.2697 10.8795 32.3844C11.7755 35.499 13.4181 37.0564 15.8075 37.0564C18.1968 37.0564 19.8181 35.5204 20.6715 32.4484C21.5248 29.3764 21.9515 24.7257 21.9515 18.4964ZM64.0165 22.9124H65.4885V32.7684H64.0165V28.4164H59.2805V36.2884H63.4405V37.5684H45.5205V36.2884H49.6805V28.4164H34.7045V27.1364L52.8805 0.320358H59.2805V27.1364H64.0165V22.9124ZM49.6805 27.1364V7.36036L36.3685 27.1364H49.6805Z" fill="#B2AEC9"/>
</svg>
